<svg xmlns="http://www.w3.org/2000/svg" xmlns:xlink="http://www.w3.org/1999/xlink" viewBox="0 0 118.57 99.1"><defs><style>.cls-1{fill:#fff;}.cls-2{fill:url(#linear-gradient);}</style><linearGradient id="linear-gradient" y1="49.55" x2="99.09" y2="49.55" gradientUnits="userSpaceOnUse"><stop offset="0" stop-color="#1e3a8a"/><stop offset="0.2" stop-color="#19449c"/><stop offset="0.6" stop-color="#0d5ecb"/><stop offset="1" stop-color="#007bff"/></linearGradient></defs><g id="Layer_2" data-name="Layer 2"><g id="Layer_2-2" data-name="Layer 2"><path class="cls-1" d="M118.57,99,72.51,52.47,56.69,68.29S69,81.53,73.44,86,89.16,99,99.5,99h18.61"/><path class="cls-2" d="M99.09,11.17H87.46A24.19,24.19,0,0,0,66,24.75l-.59.37L46.63,58.23l-.26-29.41C48.15,17,41.2,1.21,24.2.21L24,0H2A2,2,0,0,0,0,2V20.58a1.75,1.75,0,0,0,1.75,1.75H21a3,3,0,0,1,3,3V81.89h.12A16.29,16.29,0,0,0,24,83.75,15.36,15.36,0,0,0,53.74,89.2h0Z"/></g></g></svg>